HIERARCHY
ROOT Hips
{
  OFFSET 5.84602e-005 68.8428 3.50346
  CHANNELS 6 Xposition Yposition Zposition Zrotation Xrotation Yrotation
  JOINT Spine
  {
    OFFSET 0 8.597 -4.6522
    CHANNELS 3 Zrotation Xrotation Yrotation
    JOINT Spine1
    {
      OFFSET 0 7.8454 0.4098
      CHANNELS 3 Zrotation Xrotation Yrotation
      JOINT Spine2
      {
        OFFSET 0 9.7078 -2.1609
        CHANNELS 3 Zrotation Xrotation Yrotation
        JOINT Neck
        {
          OFFSET 0 21.8761 -0.4549
          CHANNELS 3 Zrotation Xrotation Yrotation
          JOINT Head
          {
            OFFSET 0 12.3537 3.3602
            CHANNELS 3 Zrotation Xrotation Yrotation
            End Site
            {
              OFFSET 0.0001 18.9506 0.5657
            }
          }
        }
        JOINT LeftShoulder
        {
          OFFSET 2.2086 21.1115 7.2329
          CHANNELS 3 Zrotation Xrotation Yrotation
          JOINT LeftArm
          {
            OFFSET 13.1193 3.0282 -4.8998
            CHANNELS 3 Zrotation Xrotation Yrotation
            JOINT LeftForeArm
            {
              OFFSET 27.4081 -0.0973053 -0.2375
              CHANNELS 3 Zrotation Xrotation Yrotation
              JOINT LeftHand
              {
                OFFSET 22.8641 0.0662994 -0.1369
                CHANNELS 3 Zrotation Xrotation Yrotation
                JOINT LeftHandIndex1
                {
                  OFFSET 8.8614 0.775009 2.4612
                  CHANNELS 3 Zrotation Xrotation Yrotation
                  JOINT LeftHandIndex2
                  {
                    OFFSET 3.3146 -0.808304 0.5841
                    CHANNELS 3 Zrotation Xrotation Yrotation
                    JOINT LeftHandIndex3
                    {
                      OFFSET 2.2628 -0.552002 0.3989
                      CHANNELS 3 Zrotation Xrotation Yrotation
                      End Site
                      {
                        OFFSET 1.6102 -0.4807 0.2612
                      }
                    }
                  }
                }
                JOINT LeftHandMiddle1
                {
                  OFFSET 8.9937 0.895004 0.2143
                  CHANNELS 3 Zrotation Xrotation Yrotation
                  JOINT LeftHandMiddle2
                  {
                    OFFSET 4.0984 0.0113983 -0.0242
                    CHANNELS 3 Zrotation Xrotation Yrotation
                    JOINT LeftHandMiddle3
                    {
                      OFFSET 2.2716 0.00689697 -0.0138001
                      CHANNELS 3 Zrotation Xrotation Yrotation
                      End Site
                      {
                        OFFSET 2.0404 -0.1441 0.0027
                      }
                    }
                  }
                }
                JOINT LeftHandRing1
                {
                  OFFSET 8.5234 0.597198 -2.0164
                  CHANNELS 3 Zrotation Xrotation Yrotation
                  JOINT LeftHandRing2
                  {
                    OFFSET 3.7188 -0.188293 -0.2328
                    CHANNELS 3 Zrotation Xrotation Yrotation
                    JOINT LeftHandRing3
                    {
                      OFFSET 2.1191 -0.106598 -0.1332
                      CHANNELS 3 Zrotation Xrotation Yrotation
                      End Site
                      {
                        OFFSET 1.8737 -0.2304 -0.0886
                      }
                    }
                  }
                }
                JOINT LeftHandPinky1
                {
                  OFFSET 7.9094 -0.601089 -3.4825
                  CHANNELS 3 Zrotation Xrotation Yrotation
                  JOINT LeftHandPinky2
                  {
                    OFFSET 2.2874 -0.477005 -0.6314
                    CHANNELS 3 Zrotation Xrotation Yrotation
                    JOINT LeftHandPinky3
                    {
                      OFFSET 1.6774 -0.349396 -0.4633
                      CHANNELS 3 Zrotation Xrotation Yrotation
                      End Site
                      {
                        OFFSET 1.4888 -0.4091 -0.3416
                      }
                    }
                  }
                }
                JOINT LeftHandThumb1
                {
                  OFFSET 1.833 -1.3875 1.3896
                  CHANNELS 3 Zrotation Xrotation Yrotation
                  JOINT LeftHandThumb2
                  {
                    OFFSET 3.4129 -1.121 2.5732
                    CHANNELS 3 Zrotation Xrotation Yrotation
                    JOINT LeftHandThumb3
                    {
                      OFFSET 2.2474 -0.804199 1.6192
                      CHANNELS 3 Zrotation Xrotation Yrotation
                      End Site
                      {
                        OFFSET 1.6527 -0.5689 1.1317
                      }
                    }
                  }
                }
              }
            }
          }
        }
        JOINT RightShoulder
        {
          OFFSET -2.2086 21.1115 7.2329
          CHANNELS 3 Zrotation Xrotation Yrotation
          JOINT RightArm
          {
            OFFSET -13.1216 3.0287 -4.9007
            CHANNELS 3 Zrotation Xrotation Yrotation
            JOINT RightForeArm
            {
              OFFSET -27.4081 -0.0973053 -0.2375
              CHANNELS 3 Zrotation Xrotation Yrotation
              JOINT RightHand
              {
                OFFSET -22.8641 0.0664063 -0.1369
                CHANNELS 3 Zrotation Xrotation Yrotation
                JOINT RightHandIndex1
                {
                  OFFSET -8.8614 0.774994 2.4612
                  CHANNELS 3 Zrotation Xrotation Yrotation
                  JOINT RightHandIndex2
                  {
                    OFFSET -3.3146 -0.808304 0.5841
                    CHANNELS 3 Zrotation Xrotation Yrotation
                    JOINT RightHandIndex3
                    {
                      OFFSET -2.2628 -0.552002 0.3989
                      CHANNELS 3 Zrotation Xrotation Yrotation
                      End Site
                      {
                        OFFSET -1.6102 -0.4807 0.2612
                      }
                    }
                  }
                }
                JOINT RightHandMiddle1
                {
                  OFFSET -8.9937 0.894989 0.2143
                  CHANNELS 3 Zrotation Xrotation Yrotation
                  JOINT RightHandMiddle2
                  {
                    OFFSET -4.0984 0.0113983 -0.0242
                    CHANNELS 3 Zrotation Xrotation Yrotation
                    JOINT RightHandMiddle3
                    {
                      OFFSET -2.2716 0.00691223 -0.0138001
                      CHANNELS 3 Zrotation Xrotation Yrotation
                      End Site
                      {
                        OFFSET -2.0404 -0.1441 0.0027
                      }
                    }
                  }
                }
                JOINT RightHandRing1
                {
                  OFFSET -8.5234 0.597198 -2.0164
                  CHANNELS 3 Zrotation Xrotation Yrotation
                  JOINT RightHandRing2
                  {
                    OFFSET -3.7188 -0.188309 -0.2328
                    CHANNELS 3 Zrotation Xrotation Yrotation
                    JOINT RightHandRing3
                    {
                      OFFSET -2.1191 -0.106598 -0.1332
                      CHANNELS 3 Zrotation Xrotation Yrotation
                      End Site
                      {
                        OFFSET -1.8737 -0.2304 -0.0886
                      }
                    }
                  }
                }
                JOINT RightHandPinky1
                {
                  OFFSET -7.9094 -0.601105 -3.4825
                  CHANNELS 3 Zrotation Xrotation Yrotation
                  JOINT RightHandPinky2
                  {
                    OFFSET -2.2874 -0.477005 -0.6314
                    CHANNELS 3 Zrotation Xrotation Yrotation
                    JOINT RightHandPinky3
                    {
                      OFFSET -1.6774 -0.349396 -0.4633
                      CHANNELS 3 Zrotation Xrotation Yrotation
                      End Site
                      {
                        OFFSET -1.4888 -0.4091 -0.3416
                      }
                    }
                  }
                }
                JOINT RightHandThumb1
                {
                  OFFSET -1.833 -1.38751 1.3896
                  CHANNELS 3 Zrotation Xrotation Yrotation
                  JOINT RightHandThumb2
                  {
                    OFFSET -3.41299 -1.12099 2.5732
                    CHANNELS 3 Zrotation Xrotation Yrotation
                    JOINT RightHandThumb3
                    {
                      OFFSET -2.24741 -0.804108 1.6192
                      CHANNELS 3 Zrotation Xrotation Yrotation
                      End Site
                      {
                        OFFSET -1.6527 -0.5689 1.1317
                      }
                    }
                  }
                }
              }
            }
          }
        }
      }
    }
  }
  JOINT RightUpLeg
  {
    OFFSET -9.1966 3.8861 -0.7581
    CHANNELS 3 Zrotation Xrotation Yrotation
    JOINT RightLeg
    {
      OFFSET -0.7359 -41.0265 0
      CHANNELS 3 Zrotation Xrotation Yrotation
      JOINT RightFoot
      {
        OFFSET 0 -40.2855 0
        CHANNELS 3 Zrotation Xrotation Yrotation
        JOINT RightToeBase
        {
          OFFSET 0 -5.6122 11.7359
          CHANNELS 3 Zrotation Xrotation Yrotation
          End Site
          {
            OFFSET 0 0 7.8731
          }
        }
      }
    }
  }
  JOINT LeftUpLeg
  {
    OFFSET 9.1965 3.8864 -0.7581
    CHANNELS 3 Zrotation Xrotation Yrotation
    JOINT LeftLeg
    {
      OFFSET 0.7359 -41.0268 0
      CHANNELS 3 Zrotation Xrotation Yrotation
      JOINT LeftFoot
      {
        OFFSET 0 -40.2855 0
        CHANNELS 3 Zrotation Xrotation Yrotation
        JOINT LeftToeBase
        {
          OFFSET 0 -5.6122 11.7359
          CHANNELS 3 Zrotation Xrotation Yrotation
          End Site
          {
            OFFSET 0 0 7.8731
          }
        }
      }
    }
  }
}
MOTION
Frames:	4
Frame Time:	0.0333333
0.00334875 4.54723 5.16416 -180 -74.9926 -180 -0.266272 5.22039 -0.356467 -0.502921 10.4423 -0.692794 -0.502921 10.4423 -0.692795 0.943798 -4.23286 -0.0303482 1.21337e-007 15.0925 5.4912e-007 -1.89686 -8.76966 -11.0571 -91.4993 28.8783 17.1908 -5.00274 -20.0031 -1.22212e-006 18.2674 -14.0988 -20.7935 6.36111e-015 -5.76476e-015 1.59028e-015 6.62086e-032 -1.19271e-015 3.18055e-015 -6.36111e-015 1.98785e-016 1.59028e-015 6.36111e-015 -5.76476e-015 1.59028e-015 -0.0146383 -8.69936e-005 -1.25485e-006 0 0 -0 6.36111e-015 -5.76476e-015 1.59028e-015 -0.0187642 -0.00117127 5.57689e-005 2.07354e-008 1.22198e-007 -9.7553e-007 6.36111e-015 -5.76476e-015 1.59028e-015 -0.0122583 -0.00324761 0.000671164 9.54166e-015 1.98785e-016 -2.38542e-015 6.36111e-015 -5.76476e-015 1.59028e-015 6.62086e-032 -1.19271e-015 3.18055e-015 -6.36111e-015 1.98785e-016 1.59028e-015 19.8851 -4.30103 21.6712 53.2802 19.8549 21.9403 35.1522 -36.5619 22.9285 34.5565 21.8867 -4.39887 9.54166e-015 3.18055e-015 -6.36111e-015 0 0 -0 6.36111e-015 9.54166e-015 -0 9.54166e-015 3.18055e-015 -6.36111e-015 0.0149957 -8.97732e-005 7.34482e-007 1.56913e-007 3.13249e-006 2.19035e-006 9.54166e-015 3.18055e-015 -6.36111e-015 0.0189829 -0.00119033 -6.21253e-005 3.18055e-015 -3.18055e-015 3.18055e-015 9.54166e-015 3.18055e-015 -6.36111e-015 0.0122798 -0.00324995 -0.000676327 -9.54166e-015 3.18055e-015 -0 9.54166e-015 3.18055e-015 -6.36111e-015 0 0 -0 6.36111e-015 9.54166e-015 -0 -13.4735 -24.8875 -15.4104 -171.93 64.7506 170.353 -11.3978 4.22631 0.324081 -1.98785e-016 -1.59028e-015 1.59028e-015 17.2886 -33.7688 20.7723 172.928 49.2365 -170.392 13.7251 2.93368 0.379257 -2.08618e-008 -5.06677e-008 -5.03164e-007 
0.00334874 4.54724 5.16416 -180 -74.9926 -180 -0.266061 5.26587 -0.358022 -0.502112 10.5333 -0.695802 -0.502112 10.5333 -0.695803 0.943665 -4.00555 -0.0341672 -5.2118e-010 15.366 2.35472e-007 -1.76754 -8.9868 -11.0858 -91.4993 28.8783 17.1908 -5.00273 -20.0031 2.82018e-006 16.8892 -14.1549 -21.1963 4.96564e-032 1.78906e-015 -1.59028e-015 3.18055e-015 -9.93923e-016 1.59028e-015 3.18055e-015 -3.37934e-015 7.95139e-016 4.96564e-032 1.78906e-015 -1.59028e-015 -0.0146189 -9.26753e-005 -4.2903e-006 -0 -1.98785e-016 -0 4.96564e-032 1.78906e-015 -1.59028e-015 -0.0187747 -0.00117912 5.35898e-005 -1.36042e-007 -1.81041e-007 9.68837e-007 4.96564e-032 1.78906e-015 -1.59028e-015 -0.0122613 -0.00324362 0.000682528 3.18055e-015 -1.19271e-015 4.77083e-015 4.96564e-032 1.78906e-015 -1.59028e-015 3.18055e-015 -9.93923e-016 1.59028e-015 3.18055e-015 -3.37934e-015 7.95139e-016 19.8709 -4.52117 21.7527 53.368 19.8888 21.7143 35.1522 -36.5619 22.9285 34.4005 21.7353 -4.63347 1.94757e-006 -1.51048e-006 -2.72007e-006 2.87803e-006 -2.95702e-006 2.17058e-007 1.50152e-006 3.58475e-007 -6.59563e-007 1.94757e-006 -1.51048e-006 -2.72007e-006 0.0150123 -9.37834e-005 -1.71913e-006 1.94949e-006 -1.51085e-006 -2.71987e-006 1.94757e-006 -1.51048e-006 -2.72007e-006 0.0190073 -0.00119059 -6.0604e-005 1.94997e-006 -1.51109e-006 -2.71984e-006 1.94757e-006 -1.51048e-006 -2.72007e-006 0.0122722 -0.00324969 -0.000676587 1.94907e-006 -1.51118e-006 -2.72005e-006 1.94757e-006 -1.51048e-006 -2.72007e-006 2.87803e-006 -2.95702e-006 2.17058e-007 1.50152e-006 3.58475e-007 -6.59563e-007 -13.2558 -24.9231 -15.1872 -171.93 64.7508 170.353 -11.1809 4.24951 0.199971 1.30747e-007 1.18392e-008 -8.67518e-007 16.936 -33.8373 20.4303 172.929 49.2362 -170.389 13.4103 2.95879 0.509072 -6.64196e-008 4.90736e-009 3.65653e-009 
0.00334796 4.54724 5.16416 -180 -74.9926 -180 -0.265868 5.30169 -0.359229 -0.501424 10.6049 -0.698139 -0.501424 10.6049 -0.698139 0.94358 -3.82655 -0.0371608 -5.38871e-008 15.581 -2.51711e-007 -1.66585 -9.15766 -11.108 -91.4993 28.8783 17.1908 -5.00273 -20.0031 -7.09873e-006 15.8023 -14.192 -21.5148 -3.18055e-015 -1.39149e-015 -0 -3.86217e-032 -1.39149e-015 -1.59028e-015 1.87591e-031 -3.37934e-015 3.18055e-015 -3.18055e-015 -1.39149e-015 -0 -0.0146414 -8.60227e-005 -3.5804e-006 2.48282e-032 1.78906e-015 -7.95139e-016 -3.18055e-015 -1.39149e-015 -0 -0.0187914 -0.00117392 7.04747e-005 -1.75671e-006 -1.52971e-006 8.50341e-007 -3.18055e-015 -1.39149e-015 -0 -0.0122304 -0.00323788 0.000672962 -7.72434e-032 -2.78299e-015 -1.59028e-015 -3.18055e-015 -1.39149e-015 -0 -3.86217e-032 -1.39149e-015 -1.59028e-015 1.87591e-031 -3.37934e-015 3.18055e-015 19.8599 -4.69436 21.8169 53.4371 19.9152 21.5366 35.1522 -36.5619 22.9285 34.2775 21.6167 -4.81815 -3.18055e-015 3.18055e-015 -3.18055e-015 -1.76556e-031 3.18055e-015 3.18055e-015 3.18055e-015 9.54166e-015 -0 -3.18055e-015 3.18055e-015 -3.18055e-015 0.0149872 -9.25505e-005 2.82357e-006 3.18055e-015 1.27222e-014 -0 -3.18055e-015 3.18055e-015 -3.18055e-015 0.0190095 -0.00119027 -5.69537e-005 6.36111e-015 0 9.54166e-015 -3.18055e-015 3.18055e-015 -3.18055e-015 0.0122776 -0.00324875 -0.000671911 -1.58901e-030 9.54166e-015 9.54166e-015 -3.18055e-015 3.18055e-015 -3.18055e-015 -1.76556e-031 3.18055e-015 3.18055e-015 3.18055e-015 9.54166e-015 -0 -13.0846 -24.9504 -15.0115 -171.93 64.751 170.352 -11.0104 4.2674 0.102296 5.62251e-008 1.51658e-009 1.70464e-006 16.6583 -33.8893 20.161 172.928 49.2365 -170.387 13.1628 2.97803 0.611269 1.32839e-008 -9.81485e-010 -7.31322e-010 
0.00334795 4.54725 5.16416 -180 -74.9926 -180 -0.26566 5.33721 -0.360418 -0.500706 10.6759 -0.700444 -0.500706 10.676 -0.700443 0.943503 -3.64881 -0.0401324 -1.84041e-007 15.7942 2.36731e-007 -1.56502 -9.32718 -11.1298 -91.4993 28.8783 17.1908 -5.00274 -20.0031 4.52624e-006 14.7219 -14.2231 -21.8321 -1.59028e-015 -3.77691e-015 7.95139e-016 1.21382e-031 -4.37326e-015 1.59028e-015 1.60004e-031 -5.76476e-015 1.59028e-015 -1.59028e-015 -3.77691e-015 7.95139e-016 -0.0145818 -8.91377e-005 -6.72787e-006 -7.1726e-032 -2.5842e-015 -1.59028e-015 -1.59028e-015 -3.77691e-015 7.95139e-016 -0.0187626 -0.00117512 5.51485e-005 6.36111e-015 -1.98785e-016 -7.95139e-016 -1.59028e-015 -3.77691e-015 7.95139e-016 -0.0122466 -0.00322262 0.000672233 -3.18055e-015 -2.38542e-015 -1.59028e-015 -1.59028e-015 -3.77691e-015 7.95139e-016 1.21382e-031 -4.37326e-015 1.59028e-015 1.60004e-031 -5.76476e-015 1.59028e-015 19.8492 -4.86613 21.8804 53.5058 19.9412 21.3602 35.1522 -36.5619 22.9285 34.1553 21.4995 -5.00145 -2.22639e-014 -6.36111e-015 1.59028e-014 -1.27222e-014 -1.27222e-014 1.59028e-014 -1.90833e-014 -6.36111e-015 1.90833e-014 -2.22639e-014 -6.36111e-015 1.59028e-014 0.015013 -8.91713e-005 4.19721e-006 9.54166e-015 3.18055e-015 -6.36111e-015 -2.22639e-014 -6.36111e-015 1.59028e-014 0.0189897 -0.00118677 -5.70494e-005 -3.18055e-015 0 -0 -2.22639e-014 -6.36111e-015 1.59028e-014 0.012257 -0.00324614 -0.000674875 -2.11868e-030 -1.27222e-014 -9.54166e-015 -2.22639e-014 -6.36111e-015 1.59028e-014 -1.27222e-014 -1.27222e-014 1.59028e-014 -1.90833e-014 -6.36111e-015 1.90833e-014 -12.9144 -24.9775 -14.8371 -171.93 64.7509 170.352 -10.8412 4.2849 0.00537662 -2.48405e-008 -3.41224e-009 8.57385e-007 16.3823 -33.9404 19.8933 172.929 49.2363 -170.385 12.9172 2.99665 0.71274 1.01431e-007 -4.34901e-007 -7.99365e-009 
